<svg width="59" height="82" viewBox="0 0 59 82" fill="none" xmlns="http://www.w3.org/2000/svg">
<path d="M35.5746 30.3642C41.4148 30.3642 46.1492 25.8055 46.1492 20.1821C46.1492 14.5587 41.4148 10 35.5746 10C29.7344 10 25 14.5587 25 20.1821C25 25.8055 29.7344 30.3642 35.5746 30.3642Z" stroke="#B9CDC9" stroke-width="2" stroke-miterlimit="10"/>
<path d="M29.332 55.3998L58.6775 28.7996L59 81.6507L0 82L29.332 55.3998Z" fill="#E5DCBB"/>
<path d="M38.4689 17.1426L21.7538 34.2723L59 29.8476L55.184 0L38.4689 17.1426Z" fill="#E5DCBB"/>
<path d="M37.2462 27.3247C43.0864 27.3247 47.8208 22.766 47.8208 17.1426C47.8208 11.5192 43.0864 6.96056 37.2462 6.96056C31.406 6.96056 26.6716 11.5192 26.6716 17.1426C26.6716 22.766 31.406 27.3247 37.2462 27.3247Z" stroke="#B9CDC9" stroke-width="2" stroke-miterlimit="10"/>
</svg>
